<svg width="15" height="18" viewBox="0 0 15 18" fill="none" xmlns="http://www.w3.org/2000/svg">
<g clip-path="url(#clip0_141_4635)">
<path d="M7.2 0C5.29111 0.00212686 3.46102 0.747841 2.11122 2.07354C0.76143 3.39925 0.00216551 5.19667 0 7.0715C0 13.1225 6.54545 17.6924 6.82445 17.8837C6.93451 17.9594 7.06563 18 7.2 18C7.33437 18 7.46549 17.9594 7.57554 17.8837C7.85454 17.6924 14.4 13.1225 14.4 7.0715C14.3978 5.19667 13.6386 3.39925 12.2888 2.07354C10.939 0.747841 9.10889 0.00212686 7.2 0ZM7.2 4.50004C7.71783 4.50004 8.22403 4.65086 8.65458 4.93341C9.08514 5.21597 9.42072 5.61757 9.61888 6.08745C9.81705 6.55732 9.8689 7.07435 9.76787 7.57316C9.66685 8.07198 9.41749 8.53017 9.05133 8.88979C8.68517 9.24942 8.21866 9.49432 7.71078 9.59354C7.2029 9.69276 6.67648 9.64184 6.19806 9.44721C5.71965 9.25259 5.31075 8.923 5.02306 8.50012C4.73537 8.07725 4.58182 7.58008 4.58182 7.0715C4.58182 6.38951 4.85766 5.73545 5.34867 5.25321C5.83967 4.77097 6.50561 4.50004 7.2 4.50004Z" fill="#AF0D0D"/>
</g>
<defs>
<clipPath id="clip0_141_4635">
<rect width="14.4" height="18" fill="white"/>
</clipPath>
</defs>
</svg>
